<svg width="21" height="24" viewBox="0 0 21 24" fill="none" xmlns="http://www.w3.org/2000/svg">
<g clip-path="url(#clip0)">
<path d="M1.90179 13.2804L9.83036 5.33036C10.0821 5.07857 10.4893 5.07857 10.7411 5.33036L18.6696 13.2804C18.9214 13.5321 18.9214 13.9393 18.6696 14.1911L17.6196 15.2411C17.3625 15.4982 16.95 15.4929 16.7036 15.2304L11.6786 10.0286V23.3571C11.6786 23.7107 11.3893 24 11.0357 24H9.53571C9.18214 24 8.89286 23.7107 8.89286 23.3571V10.0286L3.87321 15.2304C3.62143 15.4875 3.20893 15.4929 2.95714 15.2411L1.90714 14.1911C1.65 13.9393 1.65 13.5321 1.90179 13.2804V13.2804ZM0.642857 2.78571H19.9286C20.2821 2.78571 20.5714 2.49643 20.5714 2.14286V0.642857C20.5714 0.289286 20.2821 0 19.9286 0H0.642857C0.289286 0 0 0.289286 0 0.642857V2.14286C0 2.49643 0.289286 2.78571 0.642857 2.78571Z" fill="white"/>
</g>
<defs>
<clipPath id="clip0">
<rect width="20.5714" height="24" fill="white"/>
</clipPath>
</defs>
</svg>
