<svg width="24" height="24" viewBox="0 0 24 24" fill="none" xmlns="http://www.w3.org/2000/svg">
<path d="M21.1921 0H2.54305C1.13854 0 0 1.13854 0 2.54305V21.1921C0 22.5966 1.13854 23.7351 2.54305 23.7351H21.1921C22.5966 23.7351 23.7351 22.5966 23.7351 21.1921V2.54305C23.7351 1.13854 22.5966 0 21.1921 0ZM22.0397 21.1921C22.0397 21.6594 21.6594 22.0397 21.1921 22.0397H2.54305C2.07566 22.0397 1.69536 21.6594 1.69536 21.1921V2.54305C1.69536 2.07566 2.07566 1.69536 2.54305 1.69536H21.1921C21.6594 1.69536 22.0397 2.07566 22.0397 2.54305V21.1921ZM7.62914 15.2583C8.09653 15.2583 8.47682 15.6385 8.47682 16.106C8.47682 16.5734 8.09653 16.9536 7.62914 16.9536C7.16175 16.9536 6.78146 16.5734 6.78146 16.106C6.78146 15.6385 7.16175 15.2583 7.62914 15.2583ZM7.62914 13.5629C6.22464 13.5629 5.08609 14.7015 5.08609 16.106C5.08609 17.5105 6.22464 18.649 7.62914 18.649C9.03364 18.649 10.1722 17.5105 10.1722 16.106C10.1722 14.7015 9.03364 13.5629 7.62914 13.5629ZM18.0122 18.649H17.5874C17.25 18.649 16.9687 18.3857 16.952 18.0487C16.6513 11.9648 11.7744 7.08403 5.68636 6.7831C5.3493 6.76646 5.08609 6.48519 5.08609 6.14771V5.72286C5.08609 5.36122 5.38718 5.06956 5.74845 5.08678C12.7214 5.41944 18.3155 11.0105 18.6483 17.9866C18.6655 18.3479 18.3739 18.649 18.0122 18.649V18.649ZM14.1974 18.649H13.7711C13.4375 18.649 13.1603 18.3916 13.1361 18.0588C12.8467 14.0729 9.65261 10.8872 5.67523 10.5989C5.34283 10.5749 5.08609 10.2972 5.08609 9.96397V9.53775C5.08609 9.16673 5.4017 8.87645 5.77181 8.90225C10.614 9.23958 14.4955 13.121 14.8328 17.9633C14.8586 18.3334 14.5684 18.649 14.1974 18.649V18.649Z" fill="white"/>
</svg>
