<svg width="24" height="24" viewBox="0 0 24 24" fill="none" xmlns="http://www.w3.org/2000/svg">
<path d="M21 0H3C1.343 0 0 1.343 0 3V21C0 22.657 1.343 24 3 24H21C22.657 24 24 22.657 24 21V3C24 1.343 22.657 0 21 0ZM16.898 9.972C17.417 10.491 17.738 11.208 17.738 12C17.738 13.584 16.454 14.868 14.87 14.868C13.286 14.868 12.003 13.584 12.003 12C12.003 10.416 13.286 9.132 14.87 9.132H11.999V17.739C11.998 19.323 10.713 20.607 9.128 20.606C7.543 20.606 6.259 19.32 6.26 17.735C6.261 16.152 7.546 14.868 9.129 14.868C7.547 14.866 6.264 13.582 6.263 11.999C6.263 10.415 7.547 9.13 9.131 9.129C7.548 9.129 6.264 7.845 6.264 6.261C6.264 4.677 7.548 3.394 9.131 3.394H14.87C16.455 3.394 17.74 4.678 17.74 6.263C17.74 7.848 16.455 9.132 14.87 9.132C15.662 9.132 16.379 9.453 16.898 9.972Z" fill="white"/>
</svg>
