<svg width="27" height="24" viewBox="0 0 27 24" fill="none" xmlns="http://www.w3.org/2000/svg">
<g clip-path="url(#clip0)">
<path d="M26.73 10.0978L15.1814 0.609384C14.7095 0.215655 14.1144 0 13.4998 0C12.8852 0 12.29 0.215655 11.8181 0.609384L0.26999 10.0978C0.194455 10.161 0.132112 10.2385 0.0865209 10.3258C0.0409298 10.4131 0.0129836 10.5086 0.00427796 10.6067C-0.00442766 10.7048 0.00627788 10.8037 0.0357833 10.8976C0.0652886 10.9916 0.113016 11.0789 0.17624 11.1544L0.65624 11.7309C0.783899 11.8834 0.966849 11.9788 1.16488 11.9964C1.36291 12.014 1.55982 11.9522 1.71233 11.8247L2.99999 10.7677V13.5H2.98546V23.25C2.98706 23.4492 3.06724 23.6398 3.20856 23.7802C3.34988 23.9207 3.54091 23.9996 3.74015 24H23.25C23.4489 24 23.6397 23.921 23.7803 23.7803C23.921 23.6397 24 23.4489 24 23.25V10.7677L25.2891 11.8266C25.4416 11.9541 25.6385 12.0159 25.8365 11.9983C26.0345 11.9807 26.2175 11.8852 26.3451 11.7328L26.8261 11.1563C26.8895 11.0805 26.9373 10.993 26.9667 10.8988C26.9962 10.8046 27.0068 10.7054 26.9979 10.6071C26.9889 10.5087 26.9607 10.4131 26.9147 10.3257C26.8687 10.2383 26.806 10.1609 26.73 10.0978V10.0978ZM21.75 10.5H21.7401V21.75H16.5V15C16.5 14.6022 16.342 14.2207 16.0607 13.9393C15.7793 13.658 15.3978 13.5 15 13.5H12C11.6022 13.5 11.2206 13.658 10.9393 13.9393C10.658 14.2207 10.5 14.6022 10.5 15V21.75H5.23546V9.11626L5.24999 9.10454V8.91704L13.5 2.13985L21.75 8.91892V10.5Z" fill="white"/>
</g>
<defs>
<clipPath id="clip0">
<rect width="27" height="24" fill="white"/>
</clipPath>
</defs>
</svg>
