<svg width="27" height="24" viewBox="0 0 27 24" fill="none" xmlns="http://www.w3.org/2000/svg">
<g clip-path="url(#clip0)">
<path d="M13.5 5.3906L3.25638 14.4239C3.18045 14.4923 3.08342 14.5242 2.99998 14.5809V23.25C2.99998 23.4489 3.079 23.6397 3.21965 23.7803C3.3603 23.921 3.55107 24 3.74998 24H9.74998C9.94889 24 10.1397 23.921 10.2803 23.7803C10.421 23.6397 10.5 23.4489 10.5 23.25V17.25C10.5 17.0511 10.579 16.8603 10.7196 16.7196C10.8603 16.579 11.0511 16.5 11.25 16.5H15.75C15.9489 16.5 16.1397 16.579 16.2803 16.7196C16.421 16.8603 16.5 17.0511 16.5 17.25V23.25C16.5 23.4489 16.579 23.6397 16.7196 23.7803C16.8603 23.921 17.0511 24 17.25 24H23.25C23.4489 24 23.6397 23.921 23.7803 23.7803C23.921 23.6397 24 23.4489 24 23.25V14.5828C23.9203 14.5284 23.8256 14.4975 23.7534 14.4328L13.5 5.3906ZM26.7511 11.0756L14.7539 0.481853C14.4105 0.171401 13.9641 -0.000488281 13.5012 -0.000488281C13.0382 -0.000488281 12.5918 0.171401 12.2484 0.481853L0.248415 11.0756C0.175113 11.1414 0.115497 11.221 0.0729731 11.3099C0.0304495 11.3988 0.00585154 11.4952 0.000584395 11.5935C-0.00468275 11.6919 0.00948415 11.7904 0.0422758 11.8833C0.0750674 11.9762 0.125841 12.0617 0.191697 12.135L1.19529 13.2515C1.26111 13.3248 1.34073 13.3845 1.4296 13.427C1.51847 13.4695 1.61485 13.4941 1.71323 13.4994C1.81161 13.5046 1.91006 13.4905 2.00296 13.4577C2.09586 13.4249 2.18139 13.3741 2.25467 13.3083L13.004 3.82638C13.1411 3.7055 13.3175 3.6388 13.5002 3.6388C13.6829 3.6388 13.8594 3.7055 13.9964 3.82638L24.7458 13.3078C24.819 13.3736 24.9046 13.4244 24.9975 13.4572C25.0904 13.49 25.1888 13.5042 25.2872 13.4989C25.3856 13.4936 25.482 13.469 25.5708 13.4265C25.6597 13.384 25.7393 13.3244 25.8051 13.2511L26.8083 12.1345C26.9411 11.9865 27.0096 11.7918 26.9989 11.5932C26.9882 11.3946 26.899 11.2085 26.7511 11.0756V11.0756Z" fill="white"/>
</g>
<defs>
<clipPath id="clip0">
<rect width="27" height="24" fill="white"/>
</clipPath>
</defs>
</svg>
